<?xml version="1.0" encoding="UTF-8"?>
<svg id="Layer_1" data-name="Layer 1" xmlns="http://www.w3.org/2000/svg" width="336" height="120" viewBox="0 0 336 120">
  <g>
    <g>
      <path d="M30.46,36.44v-8.12s0-8.12,0-8.12c0-.34.27-.59.62-.7s.77-.07,1.09.16l2.43,2.28c1.26,1.18,2.63,2.24,4.09,3.17l4.23,2.67c.2.15.29.34.29.53s-.1.39-.29.53l-4.23,2.67c-1.46.92-2.83,1.98-4.09,3.17l-2.43,2.28c-.31.24-.74.27-1.09.16s-.62-.36-.62-.7Z" style="fill: #fff;"/>
      <path d="M309.4,36.44v-8.12s0-8.12,0-8.12c0-.34.27-.59.62-.7s.77-.07,1.09.16l2.43,2.28c1.26,1.18,2.63,2.24,4.09,3.17l4.23,2.67c.2.15.29.34.29.53,0,.19-.1.39-.29.53l-4.23,2.67c-1.46.92-2.83,1.98-4.09,3.17l-2.43,2.28c-.31.24-.74.27-1.09.16s-.62-.36-.62-.7Z" style="fill: #fff;"/>
    </g>
    <g>
      <path d="M5.12,51.18c.08,0,.16,0,.24-.01.69-1.4,1.09-3.25,1.09-5.63V11.37c0-2.16-.35-3.85-.92-5.2-.13-.03-.27-.04-.41-.04v45.06Z" style="fill: #fff;"/>
      <path d="M284.05,51.18c.08,0,.16,0,.24-.01.69-1.4,1.09-3.25,1.09-5.63V11.37c0-2.16-.35-3.85-.92-5.2-.13-.03-.27-.04-.41-.04v45.06Z" style="fill: #fff;"/>
      <path d="M60.23,45.97c.08,0,.16,0,.24-.01.69-1.4,1.09-3.25,1.09-5.63V10.84c0-2.16-.35-3.85-.92-5.2-.13-.03-.27-.04-.41-.04v40.37Z" style="fill: #fff;"/>
      <path d="M142.57,45.97c.08,0,.16,0,.24-.01.69-1.4,1.09-3.25,1.09-5.63V10.84c0-2.16-.35-3.85-.92-5.2-.13-.03-.27-.04-.41-.04v40.37Z" style="fill: #fff;"/>
      <path d="M195.28,45.97c.08,0,.16,0,.24-.01.69-1.4,1.09-3.25,1.09-5.63V10.84c0-2.16-.35-3.85-.92-5.2-.13-.03-.27-.04-.41-.04v40.37Z" style="fill: #fff;"/>
      <path d="M223.82,45.97c.08,0,.16,0,.24-.01.69-1.4,1.09-3.25,1.09-5.63V10.84c0-2.16-.35-3.85-.92-5.2-.13-.03-.27-.04-.41-.04v40.37Z" style="fill: #fff;"/>
      <path d="M113.69,20.42v25.55c.08,0,.16,0,.24-.01.69-1.4,1.09-3.25,1.09-5.63v-22.41l-1.34,2.51Z" style="fill: #fff;"/>
      <path d="M176.87,11.38v8.78c1.03-1.06,1.34-2.53,1.34-4.35,0-1.96-.4-3.4-1.34-4.43Z" style="fill: #fff;"/>
      <path d="M259.32,11.38v7.83c1.03-.95,1.34-2.25,1.34-3.88,0-1.75-.4-3.03-1.34-3.95Z" style="fill: #fff;"/>
    </g>
    <g>
      <path d="M55.79,36.6c-.44,0-.73.24-1.24,1.05-4.07,6.21-7.12,10.48-15.26,10.48h-16.08c-2.55,0-3.64-1.21-3.64-4.03V11.3c0-1.53.58-2.18,1.96-2.18h16.37c8.22,0,11.41,3.95,13.95,8.86.44.89.73,1.05,1.16,1.05.29,0,.58-.24.58-.81,0-.16,0-.4-.07-.73-1.82-5.96-2.93-10.25-4.1-16.13-.15-.81-.51-1.37-.95-1.37-.36,0-2.6.34-5.51.42-9.75.24-19.19.24-29.02.24C9.75.66,5.46.42,1.24.42.51.42,0,.9,0,1.38c0,.56.51.97,1.24.97,4.15,0,7.13,2.58,7.13,9.18v34.17c0,6.61-2.98,9.19-7.13,9.19-.73,0-1.24.4-1.24.97,0,.48.51.97,1.24.97,4.22,0,8.51-.24,12.73-.24,10.04,0,19.78,0,29.96.24,2.91.08,4.36.46,5.61.58.43.04.73-.56.95-1.37l5.74-17.74c.15-.4.15-.72.15-.97,0-.48-.29-.72-.58-.72ZM12.57,45.23c0,1.86-1.57,2.92-1.57,2.92V8.04s1.57,1.27,1.57,2.92v34.27Z" style="fill: #fff;"/>
      <path d="M334.73,36.6c-.44,0-.73.24-1.24,1.05-4.07,6.21-7.12,10.48-15.26,10.48h-16.08c-2.55,0-3.64-1.21-3.64-4.03V11.3c0-1.53.58-2.18,1.96-2.18h16.37c8.22,0,11.41,3.95,13.95,8.86.44.89.73,1.05,1.16,1.05.29,0,.58-.24.58-.81,0-.16,0-.4-.07-.73-1.82-5.96-2.93-10.25-4.1-16.13-.15-.81-.51-1.37-.95-1.37-.36,0-2.6.34-5.51.42-9.75.24-19.19.24-29.02.24-4.22,0-8.51-.24-12.73-.24-.73,0-1.24.48-1.24.97,0,.56.51.97,1.24.97,4.15,0,7.13,2.58,7.13,9.18v34.17c0,6.61-2.98,9.19-7.13,9.19-.73,0-1.24.4-1.24.97,0,.48.51.97,1.24.97,4.22,0,8.51-.24,12.73-.24,10.04,0,19.78,0,29.96.24,2.91.08,4.36.46,5.61.58.43.04.73-.56.95-1.37,1.82-6.45,3.41-11.38,5.74-17.74.15-.4.15-.72.15-.97,0-.48-.29-.72-.58-.72ZM291.52,45.23c0,1.86-1.57,2.92-1.57,2.92V8.04s1.57,1.27,1.57,2.92v34.27Z" style="fill: #fff;"/>
      <path d="M168.99.12c-5.82,0-11.79.22-17.61.22-4.22,0-8.51-.22-12.73-.22-.73,0-1.24.44-1.24.87,0,.51.51.87,1.24.87,4.15,0,7.13,2.33,7.13,8.29v30.85c0,5.97-2.98,8.29-7.13,8.29-.73,0-1.24.36-1.24.87,0,.44.51.87,1.24.87,4.22,0,8.51-.22,12.73-.22s8.51.22,12.73.22c.73,0,1.24-.44,1.24-.87,0-.51-.51-.87-1.24-.87-4.15,0-7.13-2.33-7.13-8.29v-8.29c0-.87.44-1.31,1.31-1.31h12.73c13.46,0,21.83-4.15,21.83-15.57S185.72.12,168.99.12ZM150,40.8c0,1.86-1.57,2.92-1.57,2.92V7.52s1.57,1.27,1.57,2.92v30.36ZM169.72,23.55h-11.42c-.87,0-1.31-.44-1.31-1.31v-12.82c0-1.38.58-1.96,1.96-1.96h9.09c7.71,0,12.08,1.45,12.08,8.22,0,5.6-3.06,7.87-10.4,7.87Z" style="fill: #fff;"/>
      <path d="M279.82,49.31c-2.69,0-5.46-1.67-10.91-8.15l-8.51-10.11c-.22-.22-.36-.51-.36-.73,0-.36.29-.73.87-.8,9.02-1.16,14.41-5.46,14.41-14.4,0-10.33-6.84-14.99-22.77-14.99-6.55,0-13.24.22-19.79.22-4.22,0-8.51-.22-12.73-.22-.73,0-1.24.44-1.24.87,0,.51.51.87,1.24.87,4.15,0,7.13,2.33,7.13,8.29v30.85c0,5.97-2.98,8.29-7.13,8.29-.73,0-1.24.36-1.24.87,0,.44.51.87,1.24.87,4.22,0,8.51-.22,12.73-.22s8.51.22,12.73.22c.73,0,1.24-.44,1.24-.87,0-.51-.51-.87-1.24-.87-4.15,0-7.13-2.33-7.13-8.29v-9.75c0-.87.44-1.31,1.31-1.31h3.64c2.26,0,3.35.66,4.51,2.04l6.48,8c2.69,3.27,3.56,5.53,3.56,7.06s-1.16,2.26-3.27,2.26c-.73,0-1.24.36-1.24.87,0,.44.51.87,1.24.87,4.15,0,8.44-.22,12.66-.22s8.37.22,12.59.22c.73,0,1.24-.44,1.24-.87,0-.51-.51-.87-1.24-.87ZM231.39,40.8c0,1.86-1.57,2.92-1.57,2.92V8.04s1.57,1.27,1.57,2.92v29.84ZM253.11,22.09h-13.46c-.87,0-1.31-.44-1.31-1.31v-10.84c0-1.38.58-1.96,1.96-1.96h11.28c6.99,0,10.99,1.31,10.99,7.49,0,5.09-2.77,6.62-9.46,6.62Z" style="fill: #fff;"/>
      <path d="M135.2,49.31c-4.15,0-7.13-2.33-7.13-8.29V10.16c0-5.97,2.98-8.29,7.13-8.29.73,0,1.24-.36,1.24-.87,0-.44-.51-.87-1.24-.87-3.49,0-7.06.22-10.62.22s-7.28-.15-10.7-.15c-2.18,0-3.06.51-3.93,2.11l-14.04,26.92c-.07.15-.22.29-.44.29s-.36-.15-.44-.29l-14.12-26.92c-.87-1.6-1.75-2.11-3.93-2.11-3.42,0-7.13.15-10.55.15s-7.06-.22-10.41-.22c-.73,0-1.24.44-1.24.87,0,.51.51.87,1.24.87,4.15,0,7.13,2.33,7.13,8.29v30.85c0,5.97-2.98,8.29-7.13,8.29-.73,0-1.24.36-1.24.87,0,.44.51.87,1.24.87,4,0,8.22-.22,12.22-.22s8.15.22,12.22.22c.73,0,1.24-.44,1.24-.87,0-.51-.51-.87-1.24-.87-4.15,0-7.13-2.33-7.13-8.29V13.36c0-.73.36-1.16.73-1.16.29,0,.65.15,1.02.8l18.84,35.36c.29.58.51,1.02,1.16,1.02s.87-.44,1.16-1.02l18.84-35.36c.36-.66.73-.8,1.02-.8.36,0,.73.44.73,1.16v27.65c0,5.97-2.98,8.29-7.13,8.29-.73,0-1.24.36-1.24.87,0,.44.51.87,1.24.87,4.22,0,8.51-.22,12.73-.22s8.51.22,12.73.22c.73,0,1.24-.44,1.24-.87,0-.51-.51-.87-1.24-.87ZM67.48,40.57c0,1.88-1.57,3.15-1.57,3.15V10.67l1.57,2.81v27.1ZM121.13,40.59c0,1.87-1.57,3.12-1.57,3.12V10.85l1.57-2.81v32.55Z" style="fill: #fff;"/>
      <path d="M216.79,49.31c-4.15,0-7.13-2.33-7.13-8.29V10.16c0-5.97,2.98-8.29,7.13-8.29.73,0,1.24-.36,1.24-.87,0-.44-.51-.87-1.24-.87-4.22,0-8.51.22-12.73.22s-8.51-.22-12.73-.22c-.73,0-1.24.44-1.24.87,0,.51.51.87,1.24.87,4.15,0,7.13,2.33,7.13,8.29v30.85c0,5.97-2.98,8.29-7.13,8.29-.73,0-1.24.36-1.24.87,0,.44.51.87,1.24.87,4.22,0,8.51-.22,12.73-.22s8.51.22,12.73.22c.73,0,1.24-.44,1.24-.87,0-.51-.51-.87-1.24-.87ZM202.66,40.59c0,1.87-1.57,3.12-1.57,3.12V7.99s1.57,1.25,1.57,3.12v29.47Z" style="fill: #fff;"/>
    </g>
  </g>
  <g>
    <g>
      <polygon points="328.8 75.56 285.08 76.21 285.08 74.12 328.8 74.77 328.8 75.56" style="fill: #fff;"/>
      <polygon points="7.47 75.56 51.2 76.21 51.2 74.12 7.47 74.77 7.47 75.56" style="fill: #fff;"/>
    </g>
    <g>
      <path d="M64.37,79.24v-8.81c0-1.95,1.12-2.87,3.38-2.87h6.09c2.26,0,3.34.92,3.34,2.87v2.54h-4.04v-2.02c0-.31-.12-.39-.46-.39h-3.8c-.34,0-.46.08-.46.39v7.77c0,.29.12.4.46.4h3.8c.34,0,.46-.1.46-.4v-2.04h4.04v2.56c0,1.93-1.1,2.87-3.36,2.87h-6.09c-2.26,0-3.36-.94-3.36-2.87Z" style="fill: #fff;"/>
      <path d="M93.24,67.56h9.49c2.26,0,3.36.92,3.36,2.87v3.64c0,1.64-.75,2.54-2.34,2.79l2.95,5.26h-4.21l-2.85-5.01h-2.36v5.01h-4.04v-14.55ZM101.59,74.23c.34,0,.46-.08.46-.39v-2.95c0-.31-.12-.4-.46-.4h-4.31v3.74h4.31Z" style="fill: #fff;"/>
      <path d="M122.64,67.56h11.73v2.99h-7.69v2.64h6.16v2.95h-6.16v2.97h7.69v2.99h-11.73v-14.55Z" style="fill: #fff;"/>
      <path d="M154.88,67.56h5.58l5.19,14.55h-4.36l-.97-3.08h-5.43l-.97,3.08h-4.19l5.16-14.55ZM159.38,76.1l-1.78-5.7-1.8,5.7h3.58Z" style="fill: #fff;"/>
      <path d="M183.15,70.57h-4.43v-3.02h12.93v3.02h-4.46v11.54h-4.04v-11.54Z" style="fill: #fff;"/>
      <path d="M207.46,67.56h4.04v14.55h-4.04v-14.55Z" style="fill: #fff;"/>
      <path d="M227.17,67.56h4.38l3.21,10.87,3.21-10.87h4.26l-5.21,14.55h-4.65l-5.21-14.55Z" style="fill: #fff;"/>
      <path d="M257.93,67.56h11.73v2.99h-7.69v2.64h6.16v2.95h-6.16v2.97h7.69v2.99h-11.73v-14.55Z" style="fill: #fff;"/>
    </g>
  </g>
</svg>